<?xml version="1.0" encoding="UTF-8"?>
<svg width="385px" height="385px" viewBox="0 0 385 385" version="1.1" xmlns="http://www.w3.org/2000/svg" xmlns:xlink="http://www.w3.org/1999/xlink">
    <title>logout</title>
    <g id="Page-1" stroke="none" stroke-width="1" fill="none" fill-rule="evenodd">
        <g id="logout" transform="translate(-70.000000, -51.000000)" fill="#A25F4B" fill-rule="nonzero">
            <g transform="translate(70.000000, 51.000000)" id="Path">
                <path d="M180.455,360.909 L24.061,360.909 L24.061,24.06 L180.455,24.06 C187.096,24.06 192.485,18.67 192.485,12.03 C192.485,5.39 187.095,0 180.455,0 L12.03,0 C5.39,0 0,5.389 0,12.03 L0,372.939 C0,379.58 5.39,384.969 12.03,384.969 L180.454,384.969 C187.095,384.969 192.485,379.579 192.485,372.939 C192.485,366.298 187.095,360.909 180.455,360.909 Z"></path>
                <path d="M381.481,184.087 L298.472,99.887 C293.768,95.135 286.153,95.147 281.461,99.887 C276.757,104.627 276.757,112.326 281.461,117.066 L344.019,180.526 L96.279,180.526 C89.638,180.526 84.249,185.964 84.249,192.677 C84.249,199.39 89.639,204.828 96.279,204.828 L344.019,204.828 L281.461,268.288 C276.757,273.04 276.757,280.727 281.461,285.467 C286.165,290.219 293.78,290.219 298.472,285.467 L381.469,201.267 C386.113,196.587 386.161,188.755 381.481,184.087 Z"></path>
            </g>
        </g>
    </g>
</svg>